<?xml version="1.0" encoding="utf-8"?>
<!-- Generator: Adobe Illustrator 21.0.2, SVG Export Plug-In . SVG Version: 6.00 Build 0)  -->
<svg version="1.1" id="Layer_1" xmlns="http://www.w3.org/2000/svg" xmlns:xlink="http://www.w3.org/1999/xlink" x="0px"
	 y="0px"
	 viewBox="0 0 929.1 795.1" style="enable-background:new 0 0 929.1 795.1;" xml:space="preserve">
<style type="text/css">
	.st0{fill:#000000;}
</style>
	<g>
	<path class="st0" d="M241.9,161.3H0V0h585.5v157.9H416.8l0,637.2H241.9V161.3z"/>
		<path class="st0" d="M241.9,0h363.5c100.7,0,177.9,26.9,231.7,80.6c45.4,45.4,68.2,106,68.2,181.7v2.3
		c0,64.4-15.7,116.8-47.1,157.3c-31.4,40.5-72.5,70.2-123.2,89.2l194.2,284H724.6L554.2,540.7H552H416.8v254.4H241.9V0z M594,386.2
		c43.2,0,76.3-10.2,99.4-30.7c23.1-20.4,34.6-47.7,34.6-81.8v-2.3c0-37.9-12.1-66.3-36.3-85.2c-24.2-18.9-57.9-28.4-101.1-28.4
		H416.8v228.3H594z"/>
</g>
</svg>
